<?xml version="1.0" standalone="no"?><!DOCTYPE svg PUBLIC "-//W3C//DTD SVG 1.1//EN" "http://www.w3.org/Graphics/SVG/1.1/DTD/svg11.dtd"><svg class="icon" width="128px" height="128.00px" viewBox="0 0 1024 1024" version="1.1" xmlns="http://www.w3.org/2000/svg"><path  d="M196.14 399.4675l195.711 52.4503c2.43 0.6543 4.8589 0.9544 7.2632 0.9544 12.3402 0 23.6175-8.2176 26.9742-20.7227 3.9864-14.9074-4.8589-30.252-19.7673-34.2385l-195.71-52.4503c-14.8531-4.0131-30.2254 4.8333-34.2385 19.7673C172.3873 380.1375 181.2326 395.4811 196.14 399.4675zM196.14 539.262l195.711 52.4483c2.43 0.6564 4.8589 0.9564 7.2632 0.9564 12.3402 0 23.6175-8.2176 26.9742-20.7227 3.9864-14.9074-4.8589-30.2531-19.7673-34.2385l-195.71-52.4503c-14.8531-3.9864-30.2254 4.8323-34.2385 19.7673C172.3873 519.9299 181.2326 535.2755 196.14 539.262zM196.14 679.0543l195.711 52.4503c2.43 0.6543 4.8589 0.9564 7.2632 0.9564 12.3402 0 23.6175-8.2176 26.9742-20.7237 3.9864-14.9084-4.8589-30.252-19.7673-34.2385l-195.71-52.4503c-14.8531-3.9588-30.2254 4.8343-34.2385 19.7683C172.3873 659.7243 181.2326 675.0679 196.14 679.0543zM947.3106 124.6044c-6.8803-5.3238-15.9447-7.1526-24.2452-4.8333L510.9217 230.2147 98.7771 119.7722c-8.3005-2.2927-17.365-0.4905-24.2452 4.8333-6.9079 5.2695-10.9486 13.4881-10.9486 22.1706v671.008768c0 12.6403 8.492 23.7261 20.7237 27.0019L503.6851 957.1666c2.3757 0.6564 4.8056 0.9564 7.2356 0.9564s4.8589-0.3 7.2346-0.9564l419.3792-112.3799c12.2317-3.2758 20.7237-14.3616 20.7237-27.0019V146.77504C958.2592 138.0925 954.2185 129.8739 947.3106 124.6044zM482.9635 893.7144l-363.4627-97.3916V183.225344l363.4627 97.3906V893.714432zM902.3416 796.3218l-363.4606 97.3916V280.615936l363.4606-97.3906V796.3217920000001zM622.7282 452.8732c2.4033 0 4.8333-0.3 7.2632-0.9544l195.71-52.4503c14.9084-3.9864 23.7537-19.33 19.7683-34.2385-4.0141-14.934-19.3311-23.808-34.2395-19.7673l-195.71 52.4503c-14.9074 3.9864-23.7537 19.33-19.7683 34.2385C599.1117 444.6556 610.388 452.8732 622.7282 452.8732zM622.7282 592.6666c2.4033 0 4.8333-0.3 7.2632-0.9564l195.71-52.4483c14.9084-3.9875 23.7537-19.3321 19.7683-34.2395-4.0141-14.935-19.3311-23.7824-34.2395-19.7673L615.5203 537.7055c-14.9074 3.9854-23.7537 19.3311-19.7683 34.2385C599.1117 584.448 610.388 592.6666 622.7282 592.6666zM622.7282 732.46c2.4033 0 4.8333-0.3021 7.2632-0.9564l195.71-52.4503c14.9084-3.9864 23.7537-19.33 19.7683-34.2385-4.0141-14.934-19.3311-23.7548-34.2395-19.7683l-195.71 52.4503c-14.9074 3.9864-23.7537 19.33-19.7683 34.2385C599.1117 724.2424 610.388 732.46 622.7282 732.46z" /></svg>
