<?xml version="1.0" standalone="no"?><!DOCTYPE svg PUBLIC "-//W3C//DTD SVG 1.1//EN" "http://www.w3.org/Graphics/SVG/1.1/DTD/svg11.dtd"><svg t="1641109827469" class="icon" viewBox="0 0 1024 1024" version="1.1" xmlns="http://www.w3.org/2000/svg" p-id="1241" xmlns:xlink="http://www.w3.org/1999/xlink" width="64" height="64"><defs><style type="text/css"></style></defs><path d="M1010.45248 484.43392L805.90848 287.50961778c-16.36352-15.75936-40.9088-15.75936-57.27118222 0-16.36352 15.74912-16.36352 39.38304 0 55.1424l134.99392 129.96608H490.90673778c-24.54528 0-40.9088 15.74912-40.9088 39.38304s16.36352 39.38304 40.9088 39.38304h392.72448L748.6464 681.35025778c-16.36352 15.75936-16.36352 39.39328 0 55.1424 8.18289778 7.8848 16.36352 11.81696 28.63104 11.81696 12.27889778 0 20.45952-3.9424 28.64128-11.81696l204.544-200.8576s0-3.9424 4.096-3.9424c12.26752-11.81696 12.26752-35.44064-4.096-47.2576z" p-id="1242"></path><path d="M899.9936 787.69152c-24.54528 0-40.9088 15.75936-40.9088 39.38304v78.77632c0 23.62368-16.36352 39.38304-40.9088 39.38304H122.7264c-24.54528 0-40.9088-15.75936-40.9088-39.38304V118.14798222c0-23.62368 16.36352-39.38304 40.9088-39.38304H818.176c24.54528 0 40.9088 15.75936 40.9088 39.38304v78.77632c0 23.62481778 16.36352 39.38304 40.9088 39.38304s40.9088-15.75936 40.9088-39.38304v-78.77632c0-66.94912-53.17518222-118.14912-122.7264-118.14912H122.7264c-69.53984 0-122.7264 51.2-122.7264 118.14912v787.70289778C0 972.8 53.18769778 1024 122.7264 1024H818.176c69.55008 0 122.7264-51.2 122.7264-118.14912v-78.77632c0-23.62481778-16.36352-39.38304-40.9088-39.38304z" p-id="1243"></path></svg>