<?xml version="1.0" standalone="no"?><!DOCTYPE svg PUBLIC "-//W3C//DTD SVG 1.1//EN" "http://www.w3.org/Graphics/SVG/1.1/DTD/svg11.dtd"><svg class="icon" width="128px" height="128.00px" viewBox="0 0 1024 1024" version="1.1" xmlns="http://www.w3.org/2000/svg"><path  d="M864 128h-704C108.8 128 64 172.8 64 224v467.2c0 51.2 44.8 96 96 96h704c51.2 0 96-44.8 96-96V224c0-51.2-44.8-96-96-96z m32 563.2c0 19.2-12.8 32-32 32h-704c-19.2 0-32-12.8-32-32V224c0-19.2 12.8-32 32-32h704c19.2 0 32 12.8 32 32v467.2zM928 832h-832c-19.2 0-32 12.8-32 32s12.8 32 32 32h832c19.2 0 32-12.8 32-32s-12.8-32-32-32zM793.6 281.6c-6.4-12.8-12.8-19.2-25.6-25.6-12.8 0-25.6 6.4-32 19.2L620.8 505.6 499.2 332.8c-6.4-6.4-12.8-12.8-25.6-12.8s-25.6 6.4-25.6 19.2L364.8 505.6 320 416c-6.4-12.8-12.8-19.2-25.6-19.2s-19.2 0-25.6 12.8l-108.8 128c-12.8 12.8-12.8 32 6.4 44.8 12.8 12.8 32 6.4 44.8-6.4l76.8-89.6 51.2 108.8c6.4 12.8 19.2 19.2 25.6 19.2 12.8 0 25.6-6.4 25.6-19.2l83.2-179.2 115.2 172.8c6.4 6.4 19.2 12.8 25.6 12.8 12.8 0 19.2-6.4 25.6-19.2l108.8-211.2 51.2 179.2c12.8 19.2 32 32 51.2 25.6 19.2-6.4 25.6-25.6 19.2-38.4l-76.8-256z" /></svg>
