<?xml version="1.0" standalone="no"?><!DOCTYPE svg PUBLIC "-//W3C//DTD SVG 1.1//EN" "http://www.w3.org/Graphics/SVG/1.1/DTD/svg11.dtd"><svg class="icon" width="128px" height="128.00px" viewBox="0 0 1024 1024" version="1.1" xmlns="http://www.w3.org/2000/svg"><path  d="M511.2 10.4l-440 140V600c0 231.2 440 419.2 440 419.2s440-188 440-419.2V150.4l-440-140z m366.4 588.8c0 36-17.6 76-52 118.4-32 39.2-77.6 79.2-135.2 119.2-69.6 48-140.8 84.8-179.2 103.2-38.4-18.4-109.6-55.2-179.2-103.2-57.6-40-103.2-80-135.2-119.2-34.4-42.4-52-81.6-52-118.4V201.6l366.4-116 366.4 116v397.6zM367.2 333.6c0 65.6 44.8 123.2 108 139.2v316c0 20 16 35.2 35.2 35.2s35.2-16 35.2-35.2V694.4h61.6c20 0 35.2-16 35.2-35.2 0-20-16-35.2-35.2-35.2h-61.6V472.8c76.8-20 123.2-97.6 103.2-174.4-18.4-77.6-96.8-124-173.6-104-63.2 16-108 73.6-108 139.2z m216 0c0 40-32.8 72.8-72.8 72.8s-72.8-32.8-72.8-72.8 32.8-72.8 72.8-72.8c40.8 0 72.8 32.8 72.8 72.8z" /></svg>
