<?xml version="1.0" standalone="no"?><!DOCTYPE svg PUBLIC "-//W3C//DTD SVG 1.1//EN" "http://www.w3.org/Graphics/SVG/1.1/DTD/svg11.dtd"><svg t="1641109715762" class="icon" viewBox="0 0 1024 1024" version="1.1" xmlns="http://www.w3.org/2000/svg" p-id="6301" xmlns:xlink="http://www.w3.org/1999/xlink" width="64" height="64"><defs><style type="text/css"></style></defs><path d="M947.924 963.76c0 21.752-17.62 39.372-39.354 39.372-21.75 0-39.37-17.62-39.37-39.371l-0.354-3.655c0-1.554 0.283-3.054 0.442-4.59-24.576-172.792-172.72-299.768-353.104-301.763-1.447 0.036-2.825 0.23-4.29 0.23-1.43 0-2.807-0.194-4.237-0.23C329.34 655.731 182.607 779.9 155.56 949.69c0.9 3.337 1.536 6.78 1.536 10.4l0.37 3.707c0 22.086-17.902 39.989-39.97 39.989s-39.99-17.903-39.99-39.99l-0.035-0.352h-0.76c0.107-1.165 0.336-2.278 0.46-3.425 0-3.302 0.53-6.427 1.27-9.499C98.94 791.217 205.684 662.422 350.968 606.95c-84.586-54.2-139.74-149.963-139.74-259.372 0-169.224 131.478-306.405 300.702-306.405 169.208 0 300.703 137.18 300.703 306.405 0 109.374-55.102 205.118-139.652 259.32 144.278 55.03 250.544 182.325 272.19 340.038 1.465 4.131 2.436 8.528 2.436 13.17l0.318 3.656z m-204.43-616.094c0-127.947-103.706-231.654-231.653-231.654S280.188 219.736 280.188 347.666c0 127.929 103.724 231.636 231.653 231.636s231.654-103.707 231.654-231.636z" p-id="6302"></path></svg>